<?xml version="1.0" encoding="UTF-8"?>
<svg id="Layer_1" data-name="Layer 1" xmlns="http://www.w3.org/2000/svg" viewBox="0 0 1457.68 1083.33">
  <defs>
    <style>
      .cls-1 {
        fill: #1baaae;
      }

      .cls-2 {
        fill: #fff;
      }

      .cls-3 {
        opacity: .25;
      }
    </style>
  </defs>
  <g>
    <path class="cls-2" d="M658.26,602.24l152.57,166.89c-40.03,59.22-90.91,112.71-136.49,168.89-4.16,5.12-8.87,9.7-13.2,14.68-90.21,103.86-182.91,130.63-255.6,130.63H0V283.6h238.22v572.86s94.54,24.66,177.53-12.25c6.16-2.74,36.75-18.38,67.38-52.07M0,0v226.88h329.99c43.9,2.21,70.4,14.1,84.02,19.89,34.84,14.82,65.78,45.72,90.76,73.73,50.03,56.1,144.75,178.57,144.75,178.57l161.17-184.99s-13.12-17.51-17.19-23.22C704.68,166.3,587.44,31.05,419.9,2.86,407.88.84,395.68,0,383.49,0H0Z"/>
    <polygon class="cls-2" points="1457.68 1083.33 1159.9 1083.33 885.11 745.22 1040.8 561.58 1457.68 1083.33"/>
    <path class="cls-2" d="M1457.68,0l-416.88,510.4-155.22-178.56C975.05,219.76,1067.88,110.3,1159.9,0h297.77Z"/>
  </g>
  <circle class="cls-1" cx="841.24" cy="541.15" r="106.61" transform="translate(19.35 1111.27) rotate(-67.5)"/>
  <path class="cls-3" d="M649.52,499.07l-43.66-55.7,133.56-224.14s25.96,33.31,34.38,44.52c9.4,12.5,36.9,50.33,36.9,50.33l-161.17,184.99Z"/>
  <path class="cls-3" d="M658.26,602.24l-47.93,52.01,128.38,206.28s28.19-32.81,37.09-43.65c10.98-13.36,35.03-47.76,35.03-47.76l-152.57-166.89Z"/>
  <polygon class="cls-3" points="885.58 330.71 965.44 233.35 1088.57 451.9 1040.79 510.4 885.58 330.71"/>
  <polygon class="cls-3" points="885.11 745.22 965.64 843.36 1073.89 603.06 1040.8 561.58 885.11 745.22"/>
</svg>