<?xml version="1.0" encoding="UTF-8"?>
<svg id="Layer_1" data-name="Layer 1" xmlns="http://www.w3.org/2000/svg" viewBox="0 0 1280 533">
  <defs>
    <style>
      .cls-1 {
        fill: #635bff;
      }
    </style>
  </defs>
  <path class="cls-1" d="M0,210c5.08-92.23,99.1-108.01,174.01-91.51,11.44,2.52,23.46,6.27,33.99,11.01v81.5c-12.67-5.67-25.33-11.04-38.78-14.72-17.73-4.85-56.95-12.67-72.55-2.12-8.82,5.97-9.13,19.3-2.06,26.73,11.3,11.87,50.47,21.46,67.36,28.64,33.56,14.25,60.33,37,63.07,75.93,6.8,96.66-88.62,119.87-166.23,106.23-18.52-3.26-38.19-8.71-54.81-17.19v-82.5c6.81,2.17,12.82,6.32,19.32,9.18,24.95,10.94,64.98,22.87,91.91,17.56,13.87-2.74,24.32-12.68,19.08-27.55-6.04-17.14-48.23-27.75-64.56-34.43C31.54,281.13,2.16,260.8,0,216v-6Z"/>
  <path class="cls-1" d="M804,119c.84.54,3.11,16.65,3.97,19.54.34,1.12-.67,1.78,1.51,1.45,29.9-27.65,72.26-34.75,109.87-18.85,88.11,37.25,98.16,180.39,56.82,254.53-28.72,51.5-89.89,75.78-144.2,47.85l-16.97-10.52-1.01,100.99-88,18.01V119h78ZM847.78,191.28c-10.59,1.2-23.24,6.63-30.81,14.19-4.43,4.42-3.17,14.78-3.01,21.08.06,2.37.53,78.3,1.03,113.97l.51,1.49c14.91,14.01,37.41,19.9,57.04,13.04,57.91-20.24,55.24-172.85-24.76-163.76Z"/>
  <path class="cls-1" d="M1279,306h-174c1.38,33.95,26.01,52.86,58.46,55.04,32.97,2.22,68.07-4.39,97.54-19.04v69.5c-13.74,8.98-30.75,14.63-46.81,18.19-77.24,17.1-156.49-2.74-186.21-82.17-31.28-83.6-3.57-212.15,95.98-232.06,83.02-16.6,137.92,37.74,151.73,115.35,4.48,25.16,3.3,49.72,3.31,75.19ZM1196,242c2.7-32.63-20.26-65.46-56.01-56.51-25.59,6.41-36.87,31.88-35.99,56.51h92Z"/>
  <path class="cls-1" d="M330,42v77h67v75h-68l-.04,122.54c1.33,4.21.55,8.79,1.16,12.84,5.17,34.71,40.75,31.9,66.89,23.61v70.5c-20.97,10.85-49.97,13.4-73.49,11.49-41.77-3.38-76.9-39.81-79.56-81.44V60.61s86.05-18.61,86.05-18.61Z"/>
  <path class="cls-1" d="M582,200c-23.51-7.82-52.92-2.04-68,18.5v210.5h-88V119h76l6.5,26c12.16-25.16,43.36-35.32,69.52-27.52,1.48.44,2.97.69,3.97,2.03v80.5Z"/>
  <rect class="cls-1" x="604" y="119" width="88" height="310"/>
  <polygon class="cls-1" points="692 1 692 72 604 91 604 19 692 1"/>
</svg>