<?xml version="1.0" encoding="UTF-8"?>
<svg id="Layer_1" xmlns="http://www.w3.org/2000/svg" version="1.1" viewBox="0 0 615 440.18">
  <!-- Generator: Adobe Illustrator 29.5.0, SVG Export Plug-In . SVG Version: 2.1.0 Build 137)  -->
  <defs>
    <style>
      .st0 {
        fill: #fff;
      }
    </style>
  </defs>
  <path class="st0" d="M259.78,440.18l-23.69-12.03c-.34-1.68,1.02-2.82,1.71-4.08,1.35-2.5,2.83-5.22,4.3-7.7,2.2-3.74,4.43-7.56,6.96-11.07.95-.28,14.03,6.85,16.13,7.8,1.73.79,4.24,2.35,5.92,1.17,3.19-2.23,5.72-7.02,8.33-9.87,1.7-1.86,2.27-1.14,4.31-.05,5.59,2.98,10.86,6.68,16.46,9.66,1.26,1.4,4.45,2.19,3.6,4.61-2.47,3.67-4.95,7.26-7.49,10.78-2.25,3.11-4.56,6.2-6.89,9.24l-19.7-10.49c-.85.04-2.39,1.8-2.98,2.51-1.67,2.02-3.32,4.91-4.81,7.13-.41.61-1.46,1.33-1.35,2.39h-.82Z"/>
  <path class="st0" d="M296.33,0l5.3,5.47c5.03,6.9,5.8,14.63,3.28,22.61-.3.95.07,2.12-1.35,2.47.17-2.3-.55-4.08-.94-6.16-1.52-8.15-2.84-8-6.91-14.37C293.59,6.69,293.96,3.59,295.24,0h1.09Z"/>
  <path class="st0" d="M464.19,321c-1.15-.2-4.1-1.25-5.37-1.72-.98-.37-5.58-2.84-5.98-2.79-2.17,1.24-3.95,3.15-6.05,4.57-4.38,2.99-14.33,7.83-19.43,7.3-13.59-1.41-21.99-13.26-26.46-25.09-.2-.52-1.05-5.28-2.18-3.56l-1.03,4.97c-.34.88-.82,1.8-1.14,2.67-2.25,6-5.63,11.56-8.14,17.49-.43,1.03-1.95,4-.57,4.31,3.55.8,7.05,1.01,10.59,1.68,6.87,1.29,16.33,4.41,21.76,8.99,1.37,1.15,2.92,3.26,3.2,5.04,1.03,6.62.96,13.65.53,20.41-.74,11.64-1.73,21.57-6.6,32.4-3.86,8.59-12.52,18.57-19.27,25.19s-15.13,9.54-24.36,11.37c-27.33,5.41-52.64-16.6-59.87-41.72-2.17-7.55-2.47-22,.07-29.53,1.19-3.52,4.14-8.12,4.97-11.39.1-.38.12-.76.07-1.15-3.36-.61-6.82-.09-10.21-.29-5.6-.33-11.46-.9-16.31-3.87-.65-.4-1.85-2.02-2.53-1.05-.34.48-.04,4.81-.12,5.88-.97,14.02-6.71,36.16-21.47,41.8-5.55,2.12-11.6,1.54-17.04-.83-1.08-.47-3.28-2.27-4.42-2.12-.94.13-5.02,4.34-6.09,5.18-6.72,5.27-13.03,7.64-21.75,6.84-3.67-.34-7.89-3.13-9.94-6.15-1.57-2.29-2.64-7.63-5.86-7.72-2.63-.07-8.49,1.75-11.09,2.76-9.6,3.73-13.93,9.54-18.28,18.54-1.56,3.23-3.31,9.09-5.61,11.58-.18.2.06.63-.48.07.09-4.63-.58-10.02-.11-14.57,1.18-11.34,4.34-23.95,13.25-31.74,7.82-6.83,18.18-9.71,27.91-12.33.16.73.19,1.52.35,2.25,2.83,12.99,10.52,17.08,23.17,11.58,15.12-6.57,12.68-14.64,20.99-25.65.32-.43.69-1.07,1.31-1-.16,3.07.23,6.36,0,9.41-.39,5.19-1.77,10.38-2.19,15.54-.13,1.53.12,3.23.01,4.79.39-.02.83.07,1.21-.01.96-.2,5.26-2.52,6.39-3.15,7.8-4.39,16.92-13.56,18.51-22.67.36-2.05-.37-2.14-.69-3.54-7.79-34.18-17.41-67.64-25.54-101.82-1.29-5.42-2.96-10.87-3.68-16.5-.15-1.15,1.81-8.57,2.29-10.21.99-3.38,2.47-6.72,3.57-10.07.33-1,.05-1.96.95-3.01,1.52.27,1.2,1.97,1.48,3.02,6.57,25.04,12.62,50.41,19.46,75.45,2.2,8.07,5.47,24.53,11.66,30.07,8.26,7.38,24.99,12.12,34.42,4.72.54-.42,2.38-2.1,1.71-2.81l-17.61-.53c-.19-.28-.21-4.93-.13-5.62.55-4.7.77-9.72,1.4-14.42,1.29-9.63,13.66-26.07,20.56-33.16,2.48-2.55,9.66-9.36,12.88-10.03,1.95-.4,2.64-.17,3.88,1.17,4.52,4.87,6.43,15.01,7.63,21.28.29,1.51,0,3.35,1.23,4.72.41.04,3.42-2.35,3.97-2.83,6.69-5.82,12.95-13.15,19.63-18.83.41-.35.9-.68,1.36-.95.59,4.1.1,8.29.26,12.42.09,2.25,1.23,6.42.4,8.57-.37.96-2.59,2.37-3.4,3.14-6.21,5.94-14.8,13.54-19.58,20.51-1.95,2.84-1.78,3.33-1.4,6.75.57,5.19,1.73,10.49,1.63,15.84-.06,3.34-1.4,6.13-2.74,9.12-.71.55-2.85-5.06-3.08-5.51-.52-1.03-3.13-6.63-4.11-6.47-4.93,5.19-9.03,11.43-14.07,16.49-2.84,2.86-6.71,4.44-8.31,8.33-1.01,2.45-1.25,5.12-1.87,7.68-2.68,11.17-5.22,22.8.84,33.39,4.46,7.81,18.66,17.19,27.25,19.38,28.87,7.37,51.69-12.81,62.63-37.87.38-.87,2.41-5.88,2.38-6.38-.04-.84-1.66-2.54-2.35-3.14-2.76-2.4-11.9-4.06-15.89-4.84-4.68-.91-11.62-1.22-15.86-3.23-2.59-1.23-3.28-2.52-4.04-5.23-4.52-16.11,2.86-35.58,9.91-50.21,1.49-3.09,6.86-11.24,7.21-13.79.38-2.8-1.52-8.6-2.32-11.61-3.54-13.3-7.62-26.66-11.12-40.15-.52-1.99-1.96-4.73-1.51-6.83.19-.91,1.08-2.54,1.39-3.52,1.65-5.24,3.25-11.66,5.53-16.56.27-.58.7-1.56,1.19-1.94-.09,1.15.54,2.12.8,3.16,5.94,23.66,12.16,47.17,18.77,70.69,2.52,8.96,3.87,20.2,13.73,24.18,10.02,4.04,23.41-5.74,28.18-14.32,3.25-5.85,4.3-13.93,8.07-19.21.56-.79,1.05-1.88,2.21-1.38.56.41.42,3.08.54,3.83.44,2.89,1.15,6.05,1.35,9.02.45,6.97-.33,14.39,0,21.41l8.06-1.62c1.81-1.37,1.45-2.71,1.77-4.5,2.56-14.37,3.94-28.05,10.52-41.57,4.62-9.49,10.95-13.61,19.02-19.72,7.88-5.97,20.93-16.67,30.86-17.4,2.91-.21,6.96-.6,7.71,2.92,1.54,7.3,1.85,18.01,1.43,25.59-1.15,21.18-11.83,38.12-27.01,52.36-6.58,6.17-13.97,11.47-21.21,16.76-3.68,2.69-7.91,4.92-10.83,8.48-.5,6.57.15,13.2-.14,19.77-.22,5.05-.51,11.67-1.43,16.57-.26,1.37-1.47,3.03-1.63,4.5l-.88.33-3.35-7.57c-1.31-6.92-2.65-14.12-3.08-21.19-.28-4.66.43-9.43-.27-14.05-2.1-.25-4.96.34-6.95,0ZM523.68,256.26c1.65-2.68,4.01-7.06,4.46-10.15.17-1.14-.24-2.26-1.27-2.82-.84-.46-1,.18-1.72.38-5.02,1.45-10.86,5.59-15.12,8.59-12.01,8.47-24.55,19.46-26.61,34.77-.29,2.17-.69,3.88.03,6.11.62.51,3.94-1.72,4.7-2.21,12.53-8.14,27.78-22.05,35.54-34.69ZM342.86,290.91c.18-.38.37-1.27.37-1.69-.01-2.3-.55-4.8-1.59-6.86-1.47-2.93-4.39-5.53-7.77-3.86-3.12,1.54-7.16,7.41-8.56,10.53s-3.47,7.06,1.95,6.31c3.84-.53,10.65-1.4,14.03-3.15.2-.1,1.5-1.15,1.56-1.29Z"/>
  <path class="st0" d="M270.42,46.64c.24.25-.15.94-.27,1.23-4.62,11.13-10.88,21.48-19.08,30.28-15.8,16.97-36.62,30.06-43.77,53.33-3.69,12.02-5.57,32.8.29,44.41,3.18,6.3,15.85,19.67,22.68,21.23,5.21,1.19,8.79-4.29,10.09-8.59,1.81-5.99,2.77-15.41,3.08-21.74.45-9.25-.36-22.06,2.09-30.64,2.21-7.73,11.47-21.82,17.8-26.93,1.27-1.03,2.93-1.86,4.64-1.08.92.42,2.68,4.04,3.08,5.1,4.14,10.7,2.87,24.06,3.18,35.55.12,4.37.36,8.94.54,13.36.54,13.24,3.79,25.35,18.35,28.29,13.7,2.76,25.61-4.77,31.68-16.74,5.01-9.88,1.97-15.9-1.12-25.55-4.1-12.81-8.82-25.63-15.25-37.66-2.16-4.05-5.6-7.7-5-12.7.06-.5.46-.89.52-1.39.63-5.91,1.41-11.7,2.4-17.51.13-.75.07-1.5.07-2.25.45-.52,1.85,1.94,2.01,2.21,5.58,9.45,10.65,20.83,15.24,30.85,4.02,8.78,9.02,18.46,11.05,27.95,2.27,10.6,3.22,21.02,7.78,31.22,4.17,9.31,18.01,16.19,27.73,12.36,7.28-2.87,13.41-10.9,15.47-18.35,2.54-9.19-.23-14.14-4.71-21.86-5.44-9.37-12.38-19.36-18.94-27.97-.37-.48-.8-1.46-1.1-2.04l-.68.26c-.37.58.13,1.59.16,2.31.28,8.78,1.59,17.45,2.17,26.2.15,2.22-.17,4.61,0,6.81.09,1.13.74,2.21.54,3.41-.47-.23-.89-.7-1.19-1.12-1.74-2.47-4.81-8.14-5.33-11.03-1.03-5.75-1.99-11.64-3-17.45-2.55-14.66-3.14-28.87-2.2-43.9.2-3.13-.36-5.94.79-9.03.39-1.04,1.59.41,1.94.85,1.72,2.2,3.74,5.85,5.29,8.35,7.47,11.98,14.49,24.33,21.34,36.75,4.63,8.4,10.45,16.75,12.65,26.07,4.51,19.03,7.7,54.6-15.02,63.55-12.77,5.03-22.85.43-32.45-7.9-1.62-1.4-9.51-9.93-11.01-9.71-1.33,1.58-.46,3.93-.74,5.86-1.38,9.81-9.87,20.57-19.28,23.81-17.75,6.11-37.45-3.77-43.83-21.19-4.47-12.2-3.52-23.04-3.95-35.87-.06-1.68-.49-3.76-.55-5.45-.18-4.77.46-8.44-.74-13.17-.2-.8.1-2.72-1.28-2.97-.83-.15-2.43,2.27-2.87,3.03-7.54,12.73-9.61,25.71-10.1,40.36-.27,8.04,1.48,23.55-3.26,30.01-.89,1.21-3.41,3.45-4.83,3.9-6.27,1.97-14.04-3.12-18.75-7.04-10.78-8.97-21.32-22.38-25.59-35.77-5.17-16.18-2.46-31.71,4.52-46.92,9.16-19.94,25.38-32.61,40.7-47.38,9.47-9.13,17.87-18.67,25.14-29.68.03-.44.82-.42.9-.33Z"/>
  <path class="st0" d="M174.54,113.89c10.6,12.08,16.25,27.88,15.43,43.89-.33,6.55-.61,13.83-3.71,19.74-1.44,2.73-3.59,5.39-5.09,8.02-1.63,2.85-5.98,10.17-6.68,12.94-.58,2.3.81,6.3,3.77,5.4,5.31-1.62,9.61-7.29,14.13-9.87,2.36-1.34,2.86.23,3.05,2.48.45,5.3-1.87,16.11-3.99,21.12-5.66,13.37-14.5,18.19-26.54,24.74-13.63,7.42-27.38,14.21-41.2,21.25-9.52,9.72-18.9,23.97-30.85,30.79-1.5.86-5.6,2.58-7.21,2.61-3.18.06-5.36-2.86-7.64-4.57-.89.26-1.13.84-1.24,1.7-.36,3.01.16,5.38.81,8.2,4.46,19.42,24.77,19.34,37.98,8.01,4.36-3.74,8.15-8.25,12.62-11.92,1.79-.14,1.14,4.65,1.24,5.79.07.78.44,1.49.51,2.21.29,2.9-.55,7.77,3.97,6.91,1.47-.28,3.7-3.33,4.34-4.66,1.54-3.22,2.22-7.91,2.83-11.35.32-1.82.31-4.24.95-5.86.58-1.46,2.5-4.09,3.68-1.63,1.07,2.23,1.71,6.72,2.23,9.23.33,1.6.12,3.08,1.17,4.41,3.38.3,5.27-.79,6.42-3.97,1.55-4.26,1.96-9.88,3.14-14.32.59-2.23,1.45-4.44,2.37-6.58l.67-.13c.79.32,2.4,3.25,2.74,4.08,1.54,3.78,2.07,6.92,1.81,11.03-.48,7.49-2.16,15.96-4.79,23.03-.71,1.9-2.43,6.17-3.9,7.36-3.44,2.81-8.8,4.73-12.69,7.41-2.98,2.05-5.51,4.75-8.55,6.72-2.81,1.83-6.13,3.56-9.26,1.3-2.41-1.74-3.17-5.69-4.87-8.06-.34-.03-3.31,3.36-3.95,3.95-9.65,8.8-21.05,11.01-32.69,4.32-7-4.02-11.37-11.65-15.53-18.29.96-7.14.39-14.34.75-21.5.11-2.28.72-4.81.83-7.08.26-5.6-4.22-10.3-6.64-15.18-.89-1.8-1.18-3-1.66-4.88-3.72-14.64-2.45-31.65,3.89-45.44,6.37-13.86,22.74-26.46,34.28-36.35,9.81-8.4,25.5-18.94,27.88-32.39.15-.84.04-1.69.07-2.52.52-.08.73.21.82.68.4,2.21-.04,7.12-.33,9.48-.68,5.5-1.56,8.65-5.23,12.91-15.65,18.17-41.06,35.45-52.75,55.93-4.39,7.7-6.23,21.15-2.43,29.33,1.49,3.2,6.47,9.11,10.15,9.48,14.95,1.53,24.77-14.25,33.67-23.59,9.43-9.91,21.4-16.84,33.59-22.87,2.9-1.44,9.29-3.54,11.3-5.88,1.36-1.59.86-2.67,1.27-4.18,3.92-14.48,12.61-27.7,17.8-41.65s1.4-22.22-5.02-34.04c-1.86-3.43-4.16-8.23-6.35-11.32-.27-.38-.56-.7-.91-1-.35.36-.38,1.01-.42,1.49-.94,11.85,1.37,24.88-.77,36.59-.18,1,.24,2.47-1.53,2.3-1.52-.15-2.64-6.05-2.99-7.39-2.76-10.6-3.28-27.93-2.33-39.12.42-4.92,1.73-10.32,2.45-15.28.36-2.47-.62-6.54,3.24-4.32,4.15,2.39,8.72,6.75,11.88,10.35Z"/>
  <path class="st0" d="M387.86,67.75c1.31,1.06,2.61,2.73,3.92,3.85,11.79,10.04,25.31,16.73,37.43,26.05,7.87,6.04,16.29,12.88,23.76,19.41,16.27,14.2,23.57,24.1,28.33,45.57,2.83,12.77,3.73,33.14-1.02,45.47-6.34,16.44-13.83,27.11-28.19,37.27-9.4,6.65-21.85,14.34-32.16,19.39-1.39.68-5.81,2.9-7.04,3.07-.74.1-1.33-.09-2.02-.27-.04-.06.67-1.03.82-1.22,6.37-7.67,14.45-14.83,21.25-22.18,16.21-17.53,31.92-40.08,36.95-63.62,2.62-12.28,2.16-18.58-4.53-29.25-3.85-6.14-7.15-9.78-13.07-13.93-8.21-5.77-17.33-11.05-25.86-16.14-6.81-4.06-13.48-8.51-20.86-11.56l-.42.64c.44,2.04,1.12,4.08,1.89,6.04,6.01,15.35,15.1,30.82,22.91,45.06,4.22,7.68,8.92,15.28,11.87,23.53-.97-.65-2.31-1.22-3.2-1.91-8.46-6.58-18.15-22.23-23.39-31.56-10.24-18.25-18.55-38.08-24.96-57.9-1.99-6.16-4.22-12.5-4.99-19.01-.15-1.25-.89-7.57.37-7.97.82-.02,1.56.69,2.18,1.19Z"/>
  <path class="st0" d="M184.67,358.25c-4.97,6.3-14.8,13.38-22.46,15.86-12.1,3.92-31.02,5.71-43.83,4.7-1.51-.12-2.5-.33-1.52-2.06,1.19-2.09,4.59-2.84,6.63-3.46,21.51-6.59,43.63-17.06,59.01-33.85,7.65-8.35,14.28-18.47,14.29-30.17-3.23,1.06-6.24,3.01-9.48,4.01-3.68,1.13-6.3,1.18-9.53-1.19-3.04-2.23-3.72-4.75-3.63-8.42.1-4.26,1.55-8.28,2.4-12.32.76-3.61.96-7.41,2.47-10.9,2.97-6.86,7.86-9.66,14.86-5.76s8.36,14.61,9.25,21.56c1.16,8.97.42,16.12-1.77,24.82-3.12,12.38-8.71,27.07-16.68,37.18Z"/>
  <path class="st0" d="M537.88,314.27c.64.71,1.64,3.4,1.74,4.4.6,6.22-.92,11.7-3.17,17.31-3.74,9.32-9.12,16.43-16.56,23.12-1.31.51-2.07.36-3.28-.24-.43-.21-1.63-1.11-2.08-1.45-2.21-1.68-3.91-3.93-6.14-5.58-5.02,9.29-9.39,18.86-14.98,27.84-9.12,14.66-15.86,20.8-32.95,25.41-.96.26-1.6,1.21-2.94.47-.34-.47,1.4-2.13,1.78-2.44,3.21-2.69,7.41-4.71,10.85-7.15,12.84-9.1,20.88-22.89,28.04-36.59,2.75-5.27,5.31-12.13,8.36-17,3.96-6.32,5.79,4.37,8.93,4.3,1.97-.05,1.63-4.19,1.79-5.58.47-4,.65-7.51,1.31-11.5.15-.93-.11-1.95.08-2.92.52-2.61,6.75-10.37,9.07-11.93,2.64-1.78,7.7-3.18,10.15-.45ZM522.42,344.18c1.81.36,3.26-2.51,4.1-3.94,2.51-4.26,4.79-10.39,5.51-15.22.07-.49.42-.91.47-1.41-1.33-1.14-3.39-.1-4.61.82-3.11,2.36-4.36,7.18-4.99,10.83-.06.37-.48.82-.48.88v8.05Z"/>
  <path class="st0" d="M309.11,37.4c.14.09,1.35,2.61,1.5,2.99,1.47,3.66,1.8,7,2.68,10.68s2.17,4.83,6.04,4.53c.47-.16.71-1.26.73-1.75.19-4.31-1.85-7.09-3.15-10.76-.69-1.96-.7-2.96,0-4.92.35-.99,1.19-2.78,1.67-3.78.31-.65.92-2,1.34-2.47.27-.3.24-.39.53,0,1.34,3.15,3.18,6.33,4.41,9.5,2.72,6.99,4.59,15.78-1.26,21.74-2.34,2.38-5.03,3.22-8.33,2.85-1-.11-1.83-.67-2.75-.8-3.51-.47-4.29,1.61-6.95,2.82-1.9.86-6.86,1.48-8.78.92-1.36-.4-5.01-3.78-5.91-5-1.95-2.64-1.99-5.23-1.91-8.44.11-4.42,1.23-13.73,3.64-17.36.53-.8,1.23-1.67,2.23-1.86.93.02,1.15,1.6,1.22,2.32.4,3.95-.46,7.88-.82,11.72-.08.88-.13,3.01.01,3.81.27,1.44,3.28,5.07,4.92,4.93.99-.09,4.06-1.06,4.98-1.55,2.58-1.38,3.11-3.53,2.62-6.35-.38-2.14-2.01-5.25-1.88-7.62.05-.99,1.56-5.84,2.34-6.14.21-.08.71-.11.89,0Z"/>
  <path class="st0" d="M349.78,215.18c-.3,5.53-4.83,9.35-8.87,12.54-12.42,9.79-27.48,16.8-40.35,26.74-3.16,2.44-6.63,6.03-9.88,8.12-3.06,1.97-2.13.27-1.78-1.78,2.56-15.31,19.39-22.54,31.39-29.42,6.63-3.8,13.27-7.87,19.89-11.53,2.12-1.17,6.26-3.79,8.25-4.51.46-.17.86-.21,1.35-.15Z"/>
  <path class="st0" d="M140.5,180.92c2.18,1.48,8.62,8.72,9.09,11.23.38,2.04.14,3.51-1.49,4.76-.93.72-3.53,1.64-4.7,1.84-2.66.46-8.09-.74-10.03.88-1.04.87-.71,1.63-1.02,2.53-4.7,13.43-24.01,29.32-36.15,36.18l-9.32,4.66c-.09-.46.24-.69.54-.96,5.1-4.67,10.43-9.28,15.46-14.13,6.95-6.71,21.48-19.98,25.57-28.02,2.91-5.74,2.31-11.71,6.45-17.28,1.66-2.24,3.02-3.45,5.62-1.68ZM142.69,189.1c-1.22-1.32-3.21-2.24-4.83-2.98-1.22.23-3.48,5.02-1.78,5.91,1.89.99,3.67.47,5.54.04.8-.18,2.35.19,2.2-1.25-.03-.31-.86-1.42-1.13-1.72Z"/>
  <path class="st0" d="M243.14,269.18c-2-.69-7.16-6.54-7.89-1.76-.22,1.43.24,1.73.46,2.77,2.01,9.59,6.44,18.23,5.51,28.57-.21,2.34-.78,3.54-2.9,1.68-2.77-2.42-4.93-5.26-8.32-7.09-4.48-2.43-9.11-.85-11.29-6.71-.14-.37-.88-2.82-.93-3.16-.5-3.12.34-7.37-.02-10.62.19-1.02,1.42-1.07,2.16-.51,4.26,3.43,7.91,8.24,12.02,11.7.59.49,2.25,2.14,2.88,1.24.53-.76-.32-1.66-.41-2.35-.88-6.5-2.08-13.58-2.48-20.16-.09-1.45-.17-8.52.36-9.34,1.34-2.09,5.22,1.63,6.19,2.8,3.15,3.82,3.22,8.49,4.64,12.95Z"/>
  <path class="st0" d="M360.86,350.29c2.32,1.77,6.1,9.99,6.84,12.93.14.55.71,2.62-.29,2.48-1.4-.53-4.19-3.73-5.28-4.01-.64-.16-1.09-.06-1.16.63.06,2.43-.12,5.24.28,7.62.46,2.7,2.01,5.74,2.69,8.49,1.18,4.81,3.01,15.69,2.5,20.44-.04.41-.03.68-.42.93-2.62-1.8-4.51-4.39-6.82-6.55-1.39-1.31-4.54-4.32-6.29-4.61-.86-.14-1.82.07-2.71-.02-6.09-.63-8.22-8.34-8.33-13.51-.04-1.91.37-5.51,2.54-6.08,1.19.18,5.79,4.21,6.9,5.24,3.11,2.9,5.74,6.36,8.7,9.43.81-.01.48-2.75.38-3.38-1.37-8.21-3.5-16.27-3.19-24.85.54-2.65-.94-8.71,3.66-5.21Z"/>
  <path class="st0" d="M247.68,320.9l-.44.29c-4.14,7.74-14.9,21.48-23.66,23.74-.57.15-4.16.25-4.16-.34,4.88-6.48,12-11.02,17.17-17.26.85-1.03,3.5-4.66,3.72-5.78.37-1.89-5.11-1.55-6.29-1.35-.36.06-2.5.73-2.94.88-.57.2-3.85,1.96-4.03,1.83-.28-.99-.42-2.1-.26-3.12,1.92-12.21,13.67-14.21,24.09-14.03,3.6.06,2.29,1.55,1.61,3.73-1.22,3.92-2.83,7.71-4.82,11.42Z"/>
  <path class="st0" d="M211.91,241.76c-11.16,7.28-23.91,12.39-35.18,19.77-2.58,1.69-4.93,4.03-7.76,5.19-.86-.96,2.83-6.71,3.54-7.78,6.23-9.37,16.33-12.55,25.79-17.85,10.41-5.83,20.37-12.24,29.72-19.64.22,1.31-.75,3.14-1.31,4.42-3.19,7.28-8.28,11.63-14.8,15.89Z"/>
  <path class="st0" d="M457.67,373.25c.9-.58,3.77-3.16,4.62-2.63,2.31,1.43,1.72,7.96.52,10.1-1.43,2.54-6.04,3.58-8.72,3.31-3.68-.37-8.47-4.75-10.39-7.75-3.5-5.47-3.51-16.77-2.62-23.02.61-4.27,1.6-8.62,2.54-12.73.19-.85,1.13-5.05,1.75-5.06.47.65,1.13,1.5,1.24,2.3.33,2.37.28,6.76.27,9.3-.02,7.9-2.54,20.49,4.22,26.02.43.35,2.41,1.76,2.78,1.87,1.16.35,2.83-1.09,3.78-1.71Z"/>
  <path class="st0" d="M425.5,183.1c8.54,6.2,11.28,11.47,12.1,22.13.2,2.67-.39,4.64-.54,7.09-.22,3.7.11,7.53-1.1,11.04-.39.4-.49-.03-.54-.4-.11-.85.07-1.84,0-2.73-.5-6.07-1.8-16.4-5.5-21.23-3-3.91-7.91-7.33-12.19-9.34l-7.89-4.39c-.52-2.15.44-4.03.75-5.97.25-1.58-.56-3.36,1.24-4.4.94.57,2.16.96,3.11,1.46,3.11,1.64,7.69,4.66,10.57,6.75Z"/>
  <path class="st0" d="M504.31,165.11c5.91,4.12,12.59,10.12,14.93,17.12,2.86,8.57,1,18.07.19,26.82-.04.42-.18.81-.29,1.21h-.8c-.71-.57-.36-9.99-.57-11.57-.57-4.38-2.38-11.06-4.89-14.75-4.5-6.63-13.12-8.49-18.97-13.49-1.51-1.29-.35-2.65-.14-3.98.11-.68-.07-1.39.08-2.1.1-.49,1.06-3.66,1.24-3.75.71-.4,2.27.39,3.03.72,1.98.88,4.4,2.51,6.2,3.76Z"/>
  <path class="st0" d="M309.34,154.72c2.22,1.85-1.5,7.73-3.03,9.36s-4.68,3.57-6.99,2.98c-3-.77-5.26-3.38-6.4-6.15-2.27-5.56-1.77-18.35-1.51-24.69.37-8.99,1.52-18.08,2.18-27,.04-.49-.08-.88.42-1.21,1.5,1.38.84,3.45.96,5.31.7,11.4-.69,23.02-.02,34.38.27,4.59,2.06,7.18,5.1,10.46l.71-.02c1.71-.61,6.43-3.85,7.92-3.71.25.02.47.15.65.3Z"/>
  <path class="st0" d="M200.54,72.88c.21.12.84,1.31.89,1.7.45,3.29.25,11.52-.02,15.01-.11,1.46-.64,2.97-.81,4.37-.31,2.45-.15,4.74-.9,7.29-.43,1.48-1.33,2.78-2.52,3.75-.4-.26-.38-.52-.42-.94-.43-3.91.49-7.04.83-10.65.1-1.05.33-4.52-.99-4.75-.31-.05-3.5,3.14-3.91,3.66-.54.68-2.46,4.51-2.86,4.5-.97-1.28-2.16-2.96-2.57-4.51-1.97-7.43,5.77-14.53,10.41-19.4.35-.15,2.61-.17,2.87-.02Z"/>
</svg>